<svg width="24" height="24" viewBox="0 0 24 24" fill="none" xmlns="http://www.w3.org/2000/svg">
<path d="M0.189063 20.648C2.79531 20.8824 5.14375 20.2261 7.28125 18.623C5.04531 18.4261 3.55 17.3105 2.71563 15.2199C3.44688 15.3089 4.13125 15.3324 4.85781 15.1355C2.44844 14.3855 1.16406 12.8105 0.990625 10.2699C1.7125 10.6074 2.39219 10.8511 3.19375 10.8605C1.76406 9.78704 1.03281 8.39486 1.06094 6.64173C1.075 5.83548 1.29062 5.07611 1.71719 4.35892C4.36562 7.45736 7.68906 9.17298 11.7812 9.45892C11.7578 9.28079 11.7438 9.14017 11.725 8.99486C11.3875 6.39798 13.075 4.03548 15.6531 3.54329C17.2703 3.23392 18.7 3.66048 19.9094 4.77611C20.0969 4.94486 20.2563 4.98236 20.4906 4.92142C21.4328 4.68236 22.3281 4.33548 23.1953 3.86673C22.8625 4.96361 22.1781 5.78861 21.25 6.48236C21.4609 6.44486 21.6766 6.41673 21.8875 6.37454C22.1078 6.32767 22.3281 6.27611 22.5484 6.21517C22.7594 6.15892 22.9656 6.09329 23.1719 6.02298C23.3828 5.95267 23.5938 5.87298 23.8422 5.83079C23.7203 5.99954 23.6031 6.17767 23.4719 6.34173C22.9281 7.03079 22.3 7.63548 21.6109 8.17454C21.5406 8.23079 21.4797 8.35267 21.4844 8.43704C21.5219 10.1011 21.2875 11.723 20.7484 13.298C19.6891 16.4011 17.8422 18.9136 15.0719 20.7089C13.7031 21.5949 12.2078 22.1761 10.6094 22.5136C9.025 22.8464 7.43125 22.9074 5.83281 22.7199C4.22969 22.5324 2.70625 22.0589 1.27188 21.3183C0.892188 21.1261 0.526563 20.9105 0.15625 20.7042C0.170313 20.6855 0.179688 20.6667 0.189063 20.648Z" fill="#DBFFDC"/>
</svg>
